<svg width="1154" height="1154" viewBox="0 0 1154 1154" fill="none" xmlns="http://www.w3.org/2000/svg">
<path opacity="0.5" d="M240.417 235.368C240.417 185.025 281.191 144.25 331.534 144.25H822.465C872.808 144.25 913.583 185.025 913.583 235.368V384.667C913.583 428.867 904.877 472.635 887.962 513.472C871.047 554.308 846.255 591.412 815 622.667C783.745 653.922 746.641 678.714 705.805 695.629C664.969 712.544 621.201 721.25 577 721.25C532.799 721.25 489.031 712.544 448.195 695.629C407.359 678.714 370.254 653.922 338.999 622.667C307.745 591.412 282.952 554.308 266.037 513.472C249.122 472.635 240.417 428.867 240.417 384.667V235.368Z" fill="#780D40"/>
<path fill-rule="evenodd" clip-rule="evenodd" d="M540.937 973.687H396.687C387.123 973.687 377.95 977.487 371.187 984.25C364.424 991.013 360.625 1000.19 360.625 1009.75C360.625 1019.31 364.424 1028.49 371.187 1035.25C377.95 1042.01 387.123 1045.81 396.687 1045.81H757.312C766.877 1045.81 776.049 1042.01 782.812 1035.25C789.576 1028.49 793.375 1019.31 793.375 1009.75C793.375 1000.19 789.576 991.013 782.812 984.25C776.049 977.487 766.877 973.687 757.312 973.687H540.937ZM577 721.25C657.696 721.264 735.711 692.285 796.83 639.595C857.948 586.905 898.103 514.01 909.977 434.192C890.647 441.742 797.847 476.794 732.357 480.497C668.551 484.103 622.727 458.426 577.048 432.75C531.273 407.073 485.497 381.397 421.643 385.003C355.72 388.754 262.102 424.239 243.638 431.452C254.921 511.834 294.872 585.431 356.131 638.685C417.39 691.939 495.83 721.261 577 721.25Z" fill="#780D40"/>
<path opacity="0.5" d="M613.062 719.327C589.09 721.91 564.91 721.91 540.938 719.327V973.687H613.062V719.327Z" fill="#780D40"/>
</svg>
