<svg width="174" height="50" viewBox="0 0 174 50" fill="none" xmlns="http://www.w3.org/2000/svg">
<path d="M25 0.00713971C20.1806 0.00713971 16.6821 0.0642583 14.5759 0.174925C12.6978 0.247314 10.8373 0.566587 9.04255 1.12452C7.21637 1.77487 5.55778 2.82343 4.18704 4.19418C2.81629 5.56492 1.76773 7.22351 1.11738 9.04969C0.559447 10.8445 0.240175 12.7049 0.167785 14.583C0.0571186 16.7036 0 20.1878 0 25.0071C0 29.8265 0.0571186 33.325 0.167785 35.4312C0.235613 37.3054 0.553334 39.1796 1.11738 40.9646C1.7671 42.7888 2.81308 44.4488 4.18749 45.8197C5.54405 47.1834 7.20762 48.1972 9.04255 48.7755C10.8168 49.411 12.6838 49.768 14.5759 49.8322C16.6964 49.9429 20.1806 50 25 50C29.8194 50 33.3179 49.9429 35.4241 49.8322C37.3022 49.7598 39.1626 49.4406 40.9574 48.8826C42.7824 48.2301 44.4398 47.1807 45.8103 45.8103C47.1807 44.4398 48.23 42.7824 48.8826 40.9574C49.4443 39.163 49.7608 37.3185 49.8322 35.4241C49.9429 33.3036 50 29.8194 50 25C50 20.1806 49.9643 16.7178 49.8893 14.6116C49.7896 12.7203 49.4513 10.8491 48.8826 9.04255C48.2326 7.21674 47.1846 5.55839 45.8145 4.18766C44.4444 2.81694 42.7865 1.76818 40.961 1.11738C39.1662 0.559447 37.3058 0.240174 35.4277 0.167785C33.3024 0.0559282 29.8277 0 25.0036 0L25 0.00713971ZM23.2151 45.7018C20.2401 45.7018 17.9316 45.665 16.2894 45.5912C14.2482 45.5563 12.2202 45.2563 10.2563 44.6987C9.16986 44.2715 8.1831 43.625 7.3576 42.7995C6.5321 41.974 5.88558 40.9872 5.45837 39.9008C4.90076 37.9369 4.60076 35.9088 4.5659 33.8676C4.49093 32.2326 4.45523 29.9407 4.45523 26.942V23.3721C4.45523 20.3972 4.49212 18.0887 4.5659 16.4465C4.58732 14.4081 4.88719 12.3768 5.45837 10.4134C5.86177 9.31423 6.49956 8.31604 7.32748 7.48812C8.15539 6.66021 9.15358 6.02241 10.2527 5.61902C12.2166 5.06141 14.2447 4.76141 16.2859 4.72655C17.9209 4.65158 20.2128 4.61588 23.2115 4.61588H26.7814C29.7563 4.61588 32.0648 4.65277 33.707 4.72655C35.7454 4.74797 37.7767 5.04784 39.7401 5.61902C40.8399 6.02197 41.8388 6.65957 42.6674 7.48751C43.4959 8.31545 44.1343 9.31387 44.5381 10.4134C45.1092 12.3733 45.4091 14.4117 45.4305 16.4465C45.5019 18.0101 45.5412 20.302 45.5412 23.3721V26.942C45.5412 29.9169 45.5043 32.2255 45.4305 33.8676C45.3957 35.9088 45.0957 37.9369 44.5381 39.9008C44.1108 40.9872 43.4643 41.974 42.6388 42.7995C41.8133 43.625 40.8266 44.2715 39.7401 44.6987C37.7838 45.2699 35.7418 45.5698 33.707 45.5912C32.1469 45.6626 29.8515 45.7018 26.7814 45.7018H23.2151ZM38.3871 8.5749C37.769 8.57085 37.1638 8.75132 36.6489 9.0932C36.134 9.43509 35.7328 9.92284 35.4966 10.494C35.2605 11.0652 35.2001 11.6939 35.3233 12.2996C35.4465 12.9053 35.7476 13.4605 36.1881 13.894C36.6132 14.3376 37.1631 14.6417 37.7648 14.766C38.3666 14.8903 38.9919 14.829 39.558 14.5902C39.9272 14.4292 40.2581 14.192 40.5291 13.894C41.1002 13.2943 41.443 12.5196 41.5108 11.695C41.497 10.8708 41.1635 10.0843 40.5806 9.50147C39.9978 8.91863 39.2113 8.58867 38.3871 8.5749ZM25 12.5732C22.8035 12.5592 20.6443 13.1416 18.7527 14.2582C16.8606 15.3541 15.2863 16.9285 14.1832 18.8276C13.0866 20.7271 12.5092 22.8817 12.5092 25.075C12.5092 27.2682 13.0866 29.4229 14.1832 31.3223C15.2841 33.2176 16.8616 34.7921 18.7591 35.8892C20.6566 36.9864 22.8081 37.5682 25 37.5768C28.3119 37.5645 31.4847 36.2435 33.8266 33.9016C36.1685 31.5597 37.4896 28.3869 37.5018 25.075C37.5018 22.8973 36.9199 20.7197 35.8168 18.8276C34.7207 16.9301 33.1448 15.3543 31.2473 14.2582C29.3557 13.1416 27.1965 12.5592 25 12.5732ZM25 33.1001C22.8697 33.1001 20.8267 32.2538 19.3203 30.7475C17.814 29.2412 16.9677 27.1981 16.9677 25.0678C16.9677 22.9375 17.814 20.8945 19.3203 19.3882C20.8267 17.8818 22.8697 17.0356 25 17.0356C27.1303 17.0356 29.1733 17.8818 30.6797 19.3882C32.186 20.8945 33.0323 22.9375 33.0323 25.0678C33.0323 27.1981 32.186 29.2412 30.6797 30.7475C29.1733 32.2538 27.1303 33.1001 25 33.1001Z" fill="#7A7A7A"/>
<path d="M112 25.0627C112 11.2281 100.8 0 87 0C73.2 0 62 11.2281 62 25.0627C62 37.193 70.6 47.2932 82 49.6241V32.5815H77V25.0627H82V18.797C82 13.9599 85.925 10.0251 90.75 10.0251H97V17.5439H92C90.625 17.5439 89.5 18.6717 89.5 20.0501V25.0627H97V32.5815H89.5V50C102.125 48.7469 112 38.0702 112 25.0627Z" fill="#7A7A7A"/>
<path d="M168.444 0C169.918 0 171.331 0.585316 172.373 1.62718C173.415 2.66905 174 4.08213 174 5.55556V44.4444C174 45.9179 173.415 47.3309 172.373 48.3728C171.331 49.4147 169.918 50 168.444 50H129.556C128.082 50 126.669 49.4147 125.627 48.3728C124.585 47.3309 124 45.9179 124 44.4444V5.55556C124 4.08213 124.585 2.66905 125.627 1.62718C126.669 0.585316 128.082 0 129.556 0H168.444ZM167.056 43.0556V28.3333C167.056 25.9316 166.101 23.6283 164.403 21.9301C162.705 20.2318 160.402 19.2778 158 19.2778C155.639 19.2778 152.889 20.7222 151.556 22.8889V19.8056H143.806V43.0556H151.556V29.3611C151.556 27.2222 153.278 25.4722 155.417 25.4722C156.448 25.4722 157.437 25.8819 158.167 26.6113C158.896 27.3406 159.306 28.3297 159.306 29.3611V43.0556H167.056ZM134.778 15.4444C136.015 15.4444 137.202 14.9528 138.078 14.0776C138.953 13.2024 139.444 12.0155 139.444 10.7778C139.444 8.19444 137.361 6.08333 134.778 6.08333C133.533 6.08333 132.339 6.57792 131.458 7.4583C130.578 8.33868 130.083 9.53273 130.083 10.7778C130.083 13.3611 132.194 15.4444 134.778 15.4444ZM138.639 43.0556V19.8056H130.944V43.0556H138.639Z" fill="#7A7A7A"/>
</svg>
